<svg version="1.2" xmlns="http://www.w3.org/2000/svg" viewBox="0 0 306 345" width="306" height="345">
	<style>
		.s0 { fill: #ffffff } 
	</style>
	<g>
		<path class="s0" d="m153 274.18c-56.24 0-102-45.76-102-102 0-56.25 45.76-102 102-102 36.29 0 70.14 19.53 88.33 50.96l-44.14 25.55c-9.11-15.74-26.04-25.51-44.19-25.51-28.12 0-51 22.87-51 51 0 28.12 22.88 51 51 51 18.15 0 35.09-9.78 44.19-25.52l44.14 25.54c-18.19 31.44-52.04 50.98-88.33 50.98z"/>
	</g>
	<g>
		<path fill-rule="evenodd" class="s0" d="m255 166.51h-11.33v-11.33h-11.34v11.33h-11.33v11.33h11.33v11.34h11.34v-11.34h11.33z"/>
	</g>
	<g>
		<path fill-rule="evenodd" class="s0" d="m297.5 166.51h-11.33v-11.33h-11.34v11.33h-11.33v11.33h11.33v11.34h11.34v-11.34h11.33z"/>
	</g>
</svg>