<svg version="1.2" xmlns="http://www.w3.org/2000/svg" viewBox="0 0 256 288" width="256" height="288">
	<style>
		.s0 { fill: #ffffff } 
	</style>
	<g>
		<path class="s0" d="m201.89 116.29v13.48h13.48v-13.48h6.73v13.48h13.48v6.73h-13.48v13.48h13.48v6.74h-13.48v13.47h-6.73v-13.47h-13.48v13.47h-6.73v-13.47h-13.48v-6.74h13.48v-13.48h-13.48v-6.73h13.48v-13.48zm13.47 20.21h-13.47v13.48h13.47z"/>
		<path class="s0" d="m128.46 48.63c35.14 0 65.82 19.08 82.26 47.45l-0.16-0.27-41.35 23.81c-8.15-13.8-23.08-23.1-40.21-23.3h-0.54c-26.13 0-47.31 21.18-47.31 47.31 0 8.54 2.28 16.55 6.24 23.46 8.15 14.24 23.48 23.84 41.07 23.84 17.69 0 33.11-9.72 41.22-24.11l-0.2 0.35 41.29 23.91c-16.26 28.13-46.52 47.16-81.26 47.54l-1.05 0.01c-35.26 0-66.03-19.21-82.42-47.73-8-13.92-12.58-30.06-12.58-47.27 0-52.47 42.53-95 95-95z"/>
	</g>
</svg>